<?xml version="1.0" standalone="no"?>
<!DOCTYPE svg PUBLIC "-//W3C//DTD SVG 20010904//EN"
 "http://www.w3.org/TR/2001/REC-SVG-20010904/DTD/svg10.dtd">
<svg version="1.0" xmlns="http://www.w3.org/2000/svg"
 width="500.000000pt" height="500.000000pt" viewBox="0 0 500.000000 500.000000"
 preserveAspectRatio="xMidYMid meet">
<metadata>
Created by potrace 1.14, written by Peter Selinger 2001-2017
</metadata>
<g transform="translate(0.000000,500.000000) scale(0.100000,-0.100000)"
fill="#000000" stroke="none">
<path d="M0 2500 l0 -2500 2500 0 2500 0 0 2500 0 2500 -2500 0 -2500 0 0
-2500z m2999 1694 c234 -119 432 -221 439 -226 9 -8 12 -142 12 -609 l0 -599
26 0 c28 0 826 -396 882 -437 l32 -24 0 -603 0 -603 -22 -20 c-40 -35 -879
-493 -904 -493 -24 0 -876 460 -915 494 -18 15 -19 41 -19 586 0 560 0 570
-20 570 -19 0 -19 -11 -22 -570 -3 -490 -5 -571 -18 -584 -31 -29 -897 -496
-921 -496 -37 0 -911 482 -926 511 -10 18 -13 165 -13 610 0 544 1 588 18 607
19 23 916 452 944 452 17 0 18 31 18 593 0 583 0 594 20 612 30 27 911 444
939 445 13 0 216 -97 450 -216z"/>
<path d="M2235 4079 c-198 -94 -364 -175 -368 -179 -5 -4 37 -33 92 -65 l101
-56 361 187 360 186 -30 19 c-32 19 -148 79 -153 79 -2 0 -165 -77 -363 -171z"/>
<path d="M2555 3896 c-192 -101 -349 -187 -349 -192 2 -9 300 -174 316 -174
13 0 717 383 718 390 0 8 -308 160 -323 160 -6 -1 -169 -83 -362 -184z"/>
<path d="M1722 3283 l3 -496 360 -198 c198 -109 363 -198 368 -199 4 0 7 222
7 494 0 383 -3 496 -12 504 -16 12 -325 182 -332 182 -4 0 -6 -45 -6 -100 0
-55 -2 -100 -5 -100 -2 0 -38 17 -80 37 l-74 37 -3 110 -3 110 -100 58 c-55
31 -106 57 -113 57 -10 1 -12 -101 -10 -496z"/>
<path d="M1203 2446 c-199 -94 -365 -174 -368 -177 -3 -3 42 -31 99 -62 l104
-57 349 181 c191 100 352 185 357 190 6 6 -164 101 -176 98 -2 0 -166 -78
-365 -173z"/>
<path d="M3120 2448 c-195 -93 -359 -173 -363 -177 -5 -5 37 -34 93 -65 l101
-56 302 157 c166 86 329 171 361 189 l59 32 -91 46 c-51 25 -95 46 -99 45 -5
0 -168 -77 -363 -171z"/>
<path d="M1577 2245 c-192 -100 -349 -186 -349 -191 0 -4 71 -47 158 -95 l159
-87 30 17 c17 9 177 97 358 196 180 98 327 181 327 185 0 8 -308 160 -323 159
-6 -1 -169 -83 -360 -184z"/>
<path d="M3505 2252 c-187 -98 -348 -183 -359 -189 -15 -8 7 -24 147 -100
l166 -91 353 194 c194 106 354 197 355 201 3 8 -299 163 -315 163 -4 -1 -160
-81 -347 -178z"/>
<path d="M750 1653 l0 -498 357 -195 c196 -107 360 -196 365 -198 4 -2 8 221
8 496 l0 500 -162 89 c-90 48 -168 89 -175 91 -9 2 -13 -24 -15 -96 l-3 -99
-77 35 -78 35 0 112 0 112 -104 56 c-57 31 -107 57 -110 57 -3 0 -6 -224 -6
-497z"/>
<path d="M2662 1653 l3 -497 280 -154 c154 -84 317 -174 363 -199 l82 -45 0
501 0 500 -164 90 c-91 50 -167 91 -170 91 -3 0 -6 -45 -6 -100 0 -55 -3 -100
-7 -99 -5 0 -42 17 -83 38 l-75 37 -5 112 -5 113 -99 54 c-55 30 -103 55 -108
55 -4 0 -7 -224 -6 -497z"/>
</g>
</svg>
